# AST/ASF file generated using VICON BodyLanguage
# -----------------------------------------------
:version 1.10
:name VICON
:units
  mass 1.0
  length 0.45
  angle deg
:documentation
   .ast/.asf automatically generated from VICON data using
   VICON BodyBuilder and BodyLanguage model FoxedUp or BRILLIANT.MOD
:root
   order TX TY TZ RX RY RZ
   axis XYZ
   position 0 0 0  
   orientation 0 0 0 
:bonedata
  begin
     id 1 
     name lhipjoint
     direction 0.710087 -0.641647 0.289942 
     length 2.79038 
     axis 0 0 0  XYZ
  end
  begin
     id 2 
     name lfemur
     direction 0.34202 -0.939693 0  
     length 7.2706  
     axis 0 0 20  XYZ
    dof rx ry rz
    limits (-160.0 20.0)
           (-70.0 70.0)
           (-60.0 70.0)
  end
  begin
     id 3 
     name ltibia
     direction 0.34202 -0.939693 0   
     length 7.86328   
     axis 0 0 20   XYZ
    dof rx
    limits (-10.0 170.0)
  end
  begin
     id 4 
     name lfoot
     direction 0.0541246 -0.148706 0.987399   
     length 2.37542   
     axis -90 7.62852e-016 20   XYZ
    dof rx rz
    limits (-45.0 90.0)
           (-70.0 20.0)
  end
  begin
     id 5 
     name ltoes
     direction 1.53554e-011 -4.21866e-011 1   
     length 1.19593   
     axis -90 7.62852e-016 20   XYZ
    dof rx
    limits (-90.0 20.0)
  end
  begin
     id 6 
     name rhipjoint
     direction -0.675762 -0.671724 0.303533   
     length 2.66544  
     axis 0 0 0  XYZ 
  end
  begin
     id 7 
     name rfemur
     direction -0.34202 -0.939693 0   
     length 8.11844   
     axis 0 0 -20   XYZ
    dof rx ry rz
    limits (-160.0 20.0)
           (-70.0 70.0)
           (-70.0 60.0)
  end
  begin
     id 8 
     name rtibia
     direction -0.34202 -0.939693 0   
     length 7.97082   
     axis 0 0 -20   XYZ
    dof rx
    limits (-10.0 170.0)
 end
 begin
     id 9 
     name rfoot
     direction -0.0726228 -0.199474 0.977208   
     length 2.19677  
     axis -90 -7.62852e-016 -20   XYZ
    dof rx rz
    limits (-45.0 90.0)
           (-20.0 70.0)
  end
  begin
     id 10 
     name rtoes
     direction -1.53508e-011 -4.21913e-011 1   
     length 1.10438   
     axis -90 -7.62852e-016 -20   XYZ
    dof rx
    limits (-90.0 20.0)
  end
  begin
     id 11 
     name lowerback
     direction -0.00404436 0.999673 -0.0252643   
     length 2.03972   
     axis 0 0 0   XYZ
    dof rx ry rz
    limits (-20.0 45.0)
           (-30.0 30.0)
           (-30.0 30.0)
  end
  begin
     id 12 
     name upperback
     direction 0.00744643 0.999969 0.00242763   
     length 2.04273   
     axis 0 0 0   XYZ
    dof rx ry rz
    limits (-20.0 45.0)
           (-30.0 30.0)
           (-30.0 30.0)
  end
  begin
     id 13 
     name thorax
     direction 0.00846113 0.999862 0.0143204   
     length 2.03752   
     axis 0 0 0   XYZ
    dof rx ry rz
    limits (-20.0 45.0)
           (-30.0 30.0)
           (-30.0 30.0)
  end
  begin
     id 14 
     name lowerneck
     direction 0.0328213 0.990857 0.130862   
     length 1.37497   
     axis 0 0 0   XYZ
    dof rx ry rz
    limits (-20.0 45.0)
           (-30.0 30.0)
           (-30.0 30.0)
  end
  begin
     id 15 
     name upperneck
     direction -0.0302832 0.999496 0.00956452   
     length 1.35926   
     axis 0 0 0   XYZ
    dof rx ry rz
    limits (-20.0 45.0)
           (-30.0 30.0)
           (-30.0 30.0)
  end
  begin
     id 16
     name head
     direction -0.0130455 0.999856 -0.0108809  
     length 1.44454  
     axis 0 0 0   XYZ
    dof rx ry rz
    limits (-20.0 45.0)
           (-30.0 30.0)
           (-30.0 30.0)
  end
  begin
     id 17 
     name lclavicle
     direction 0.952957 0.278766 0.119006  
     length 3.10112  
     axis 0 0 0   XYZ
    dof ry rz
    limits (-20.0 10.0)
           (0.0 20.0)
  end
  begin
     id 18 
     name lhumerus
     direction 1 -4.48972e-011 -1.63238e-028   
     length 5.82845   
     axis -180 -30 -90   XYZ
    dof rx ry rz
    limits (-60.0 90.0)
           (-90.0 90.0)
           (-90.0 90.0)
  end
  begin
     id 19
     name lradius
     direction 1 -4.48959e-011 1.45401e-026   
     length 3.49691   
     axis -180 -30 -90   XYZ
    dof rx
    limits (-10.0 170.0)
  end
  begin
     id 20
     name lwrist
     direction 1 -4.48945e-011 2.98015e-026   
     length 1.74845   
     axis -1.7599e-014 90 90   XYZ
    dof ry
    limits (-180.0 0.0)
 end
  begin
     id 21 
     name lhand
     direction 1 -4.4902e-011 5.9603e-026   
     length 0.674998   
     axis -3.80318e-014 90 90   XYZ
    dof rx rz
    limits (-90.0 90.0)
           (-45.0 45.0)
  end
  begin
     id 22 
     name lfingers
     direction 1 -4.48979e-011 1.19206e-025   
     length 0.544201   
     axis -7.60636e-014 90 90   XYZ
    dof rx
    limits (0.0 90.0)
  end
  begin
     id 23
     name lthumb
     direction 0.707107 -6.34941e-011 0.707107   
     length 0.781367   
     axis -90 45 2.85299e-015   XYZ
    dof rx rz
    limits (-45.0 45.0)
           (-45.0 45.0)
  end
  begin
     id 24 
     name rclavicle
     direction -0.967632 0.241887 0.0719654   
     length 3.53012  
     axis 0 0 0   XYZ 
    dof ry rz
    limits (-10.0 20.0)
           (-20.0 0.0)
  end
  begin
     id 25 
     name rhumerus
     direction -1 -4.4897e-011 6.87619e-028  
     length 5.45859   
     axis -180 30 90   XYZ
    dof rx ry rz
    limits (-90.0 60.0)
           (-90.0 90.0)
           (-90.0 90.0)
  end
  begin
     id 26 
     name rradius
     direction -1 -4.48967e-011 1.68055e-026   
     length 3.58491   
     axis -180 30 90   XYZ
    dof rx
    limits (-10.0 170.0)
  end
  begin
     id 27 
     name rwrist
     direction -1 -4.48976e-011 2.98015e-026   
     length 1.79245   
     axis -1.7599e-014 -90 -90   XYZ
    dof ry
    limits (-180.0 0.0)
  end
  begin
     id 28
     name rhand
     direction -1 -4.48996e-011 5.9603e-026   
     length 0.683735   
     axis -3.80318e-014 -90 -90   XYZ
    dof rx rz
    limits (-90.0 90.0)
           (-45.0 45.0)
  end
  begin
     id 29
     name rfingers
     direction -1 -4.48924e-011 1.19206e-025   
     length 0.551245   
     axis -7.60636e-014 -90 -90   XYZ
    dof rx
    limits (0.0 90.0)
  end
  begin
     id 30
     name rthumb
     direction -0.707107 -6.3492e-011 0.707107   
     length 0.791481   
     axis -90 -45 -2.85299e-015   XYZ
    dof rx rz
    limits (-45.0 45.0)
           (-45.0 45.0)
  end
:hierarchy
  begin
    root lhipjoint rhipjoint lowerback
    lhipjoint lfemur
    lfemur ltibia
    ltibia lfoot
    lfoot ltoes
    rhipjoint rfemur
    rfemur rtibia
    rtibia rfoot
    rfoot rtoes
    lowerback upperback
    upperback thorax
    thorax lowerneck lclavicle rclavicle
    lowerneck upperneck
    upperneck head
    lclavicle lhumerus
    lhumerus lradius
    lradius lwrist
    lwrist lhand lthumb
    lhand lfingers
    rclavicle rhumerus
    rhumerus rradius
    rradius rwrist
    rwrist rhand rthumb
    rhand rfingers
  end

#!OML:ASF F:\VICON\USERDATA\INSTALL\rory3\rory3.ASF
:FULLY-SPECIFIED
:DEGREES
930
root -0.988188 18.2349 -31.7112 16.5039 -14.6483 2.59513
lowerback 4.44587 2.04122 6.50368
upperback -2.20628 3.10494 -0.96649
thorax -4.39773 1.33381 -4.90153
lowerneck -8.84025 5.80762 13.1903
upperneck -4.26054 6.46934 -7.85322
head 0.829213 2.98692 -4.24405
rclavicle -1.19271e-014 -2.22639e-014
rhumerus 47.4497 7.63063 -70.2551
rradius 54.2741
rwrist -54.711
rhand -22.6272 59.3126
rfingers 7.12502
rthumb 3.80307 29.3668
lclavicle -1.19271e-014 -2.22639e-014
lhumerus 38.7634 -11.8357 75.9746
lradius 70.6413
lwrist 102.058
lhand -25.1702 436.527
lfingers 7.12502
lthumb -178.653 73.4975
rfemur -39.5696 12.6637 13.7261
rtibia 46.402
rfoot -27.1228 -5.58547
rtoes 7.57956
lfemur -19.0775 -5.60768 -19.7079
ltibia 15.0911
lfoot -13.6486 18.7099
ltoes -1.70739
931
root -1.02916 18.2351 -31.7607 17.6663 -15.5193 2.51153
lowerback 5.38856 1.92906 7.21486
upperback -2.56657 3.09875 -0.772344
thorax -5.29489 1.26271 -5.15659
lowerneck -8.29752 5.81943 12.2383
upperneck -5.05353 6.62002 -7.71465
head 0.490907 3.07405 -4.07167
rclavicle -2.72335e-014 1.11319e-014
rhumerus 48.9362 7.64501 -70.9317
rradius 51.9019
rwrist -57.2808
rhand -22.2638 58.1338
rfingers 7.12502
rthumb 4.15407 28.1945
lclavicle -2.72335e-014 1.11319e-014
lhumerus 39.2359 -10.4944 77.4034
lradius 68.0063
lwrist 103.037
lhand -28.56 428.917
lfingers 7.12502
lthumb -181.927 81.1119
rfemur -41.2429 12.9214 13.55
rtibia 46.4365
rfoot -26.4769 -5.5906
rtoes 7.41512
lfemur -20.8221 -3.40005 -19.8118
ltibia 15.8115
lfoot -13.1193 17.2639
ltoes -2.04096
932
root -1.06887 18.2358 -31.8112 18.9903 -16.2887 2.09426
lowerback 6.32391 1.86596 8.30172
upperback -2.74756 3.20274 -0.613898
thorax -5.96991 1.2379 -5.66452
lowerneck -8.49598 5.85651 11.6631
upperneck -5.62612 6.67742 -7.76268
head 0.342633 3.09989 -3.99855
rclavicle 4.77083e-015 1.03368e-014
rhumerus 50.5195 7.40359 -71.3804
rradius 49.6723
rwrist -59.9924
rhand -22.4364 57.9639
rfingers 7.12502
rthumb 3.9874 28.0215
lclavicle 4.77083e-015 1.03368e-014
lhumerus 40.0656 -9.54015 78.4705
lradius 65.4821
lwrist 104.063
lhand -30.3846 422.941
lfingers 7.12502
lthumb -183.689 87.1117
rfemur -42.9838 13.183 13.7162
rtibia 46.3558
rfoot -25.7719 -5.86306
rtoes 6.52854
lfemur -22.8107 -1.34872 -19.614
ltibia 16.8132
lfoot -12.4147 16.2534
ltoes -4.51693
933
root -1.10897 18.2337 -31.8633 20.4424 -17.1531 1.62542
lowerback 7.22481 1.84145 9.28734
upperback -2.79531 3.36132 -0.518324
thorax -6.47603 1.24768 -6.18443
lowerneck -9.57201 5.99437 11.2918
upperneck -5.78563 6.76333 -7.87225
head 0.463516 3.12557 -3.94463
rclavicle 1.23246e-014 1.90833e-014
rhumerus 52.0777 7.0206 -71.7052
rradius 47.5868
rwrist -62.2255
rhand -22.3709 58.0753
rfingers 7.12502
rthumb 4.05064 28.1341
lclavicle 1.23246e-014 1.90833e-014
lhumerus 41.1876 -8.87092 79.046
lradius 63.0274
lwrist 104.833
lhand -30.6187 420.233
lfingers 7.12502
lthumb -183.915 89.8235
rfemur -44.8319 13.3933 13.904
rtibia 46.2446
rfoot -24.9553 -5.89652
rtoes 5.73289
lfemur -24.8488 0.703903 -19.4703
ltibia 17.7435
lfoot -12.2319 15.1613
ltoes -4.59356
934
root -1.16177 18.2258 -31.9207 21.9907 -18.4859 1.25529
lowerback 8.12981 1.99443 9.60949
upperback -2.87521 3.70737 -0.440373
thorax -7.01363 1.37038 -6.37683
lowerneck -10.6048 6.12768 10.8775
upperneck -5.83582 6.88909 -7.40757
head 0.6745 3.1796 -4.09825
rclavicle -9.54166e-015 -1.59028e-014
rhumerus 53.2901 6.76248 -71.7892
rradius 45.7482
rwrist -63.7817
rhand -21.1566 53.5153
rfingers 7.12502
rthumb 5.22319 23.5997
lclavicle -9.54166e-015 -1.59028e-014
lhumerus 42.256 -8.22145 80.0166
lradius 60.3413
lwrist 104.552
lhand -29.0259 421.754
lfingers 7.12502
lthumb -182.377 88.2795
rfemur -46.8815 13.7787 13.8841
rtibia 46.1373
rfoot -23.9954 -5.52265
rtoes 6.20577
lfemur -26.894 3.41962 -19.7599
ltibia 18.5095
lfoot -11.8004 13.9687
ltoes -6.32715
935
root -1.19348 18.2216 -31.9608 23.2931 -19.1152 1.71246
lowerback 8.70986 1.89309 9.82986
upperback -2.73047 3.63342 -0.734378
thorax -7.17557 1.31172 -6.83957
lowerneck -12.72 6.35397 10.975
upperneck -5.3572 6.93258 -7.64594
head 1.06379 3.15859 -3.73061
rclavicle 3.26007e-014 4.6118e-014
rhumerus 54.5108 6.16987 -72.1025
rradius 43.9052
rwrist -64.2485
rhand -19.7625 51.271
rfingers 7.12502
rthumb 6.56909 21.3929
lclavicle 3.26007e-014 4.6118e-014
lhumerus 43.5796 -7.81412 80.9185
lradius 57.5401
lwrist 103.333
lhand -24.8648 427.303
lfingers 7.12502
lthumb -178.358 82.7234
rfemur -48.7514 13.1789 13.3127
rtibia 46.1151
rfoot -23.1357 -5.1074
rtoes 6.33514
lfemur -28.8945 4.67813 -20.6259
ltibia 19.0195
lfoot -11.6262 13.0128
ltoes -6.29249
